<svg width="76" height="13" viewBox="0 0 76 13" fill="none" xmlns="http://www.w3.org/2000/svg">
<path d="M8.992 5.712C9.62133 6.45867 9.936 7.296 9.936 8.224C9.91467 9.29067 9.54667 10.1867 8.832 10.912C8.128 11.6267 7.26933 11.984 6.256 11.984H2.048C1.30133 11.984 0.864 11.7813 0.736 11.376C0.672 11.1947 0.64 10.9173 0.64 10.544V1.664C0.64 1.408 0.645333 1.22133 0.656 1.104C0.677333 0.986666 0.730667 0.848 0.816 0.688C0.965333 0.4 1.38133 0.256 2.064 0.256H6.096C7.07733 0.256 7.89867 0.597333 8.56 1.28C9.25333 1.97333 9.6 2.80533 9.6 3.776C9.6 4.48 9.39733 5.12533 8.992 5.712ZM7.104 8.064C7.104 7.808 7.072 7.60533 7.008 7.456C6.95467 7.30667 6.85867 7.2 6.72 7.136C6.50667 7.05067 6.208 7.008 5.824 7.008C5.44 7.008 5.152 6.93333 4.96 6.784C4.768 6.63467 4.672 6.33067 4.672 5.872C4.672 5.40267 4.768 5.09333 4.96 4.944C5.16267 4.79467 5.49333 4.72 5.952 4.72C6.37867 4.72 6.63467 4.608 6.72 4.384C6.752 4.26667 6.768 4.07467 6.768 3.808C6.768 3.54133 6.67733 3.35467 6.496 3.248C6.32533 3.14133 6.064 3.088 5.712 3.088H3.472V9.152H6.096C6.768 9.152 7.104 8.78933 7.104 8.064ZM17.7518 1.104L22.0718 10.032C22.2531 10.3947 22.3438 10.6667 22.3438 10.848C22.3438 11.232 22.0344 11.5787 21.4158 11.888C21.0531 12.0693 20.7651 12.16 20.5518 12.16C20.3491 12.16 20.1784 12.112 20.0398 12.016C19.9118 11.92 19.8158 11.8187 19.7517 11.712C19.6984 11.6053 19.6184 11.4453 19.5118 11.232L18.6798 9.504H14.2478L13.4158 11.232C13.3091 11.4453 13.2238 11.6 13.1598 11.696C13.1064 11.792 13.0104 11.8933 12.8718 12C12.7438 12.096 12.5731 12.144 12.3598 12.144C12.1571 12.144 11.8744 12.0533 11.5118 11.872C10.8931 11.5733 10.5838 11.232 10.5838 10.848C10.5838 10.6667 10.6744 10.3947 10.8558 10.032L15.1758 1.088C15.2931 0.842666 15.4691 0.645333 15.7038 0.495999C15.9491 0.346666 16.2051 0.271999 16.4718 0.271999C17.0478 0.271999 17.4744 0.549333 17.7518 1.104ZM16.4558 4.944L15.3998 7.136H17.5278L16.4558 4.944ZM31.5701 5.712C32.1995 6.45867 32.5141 7.296 32.5141 8.224C32.4928 9.29067 32.1248 10.1867 31.4101 10.912C30.7061 11.6267 29.8475 11.984 28.8341 11.984H24.6261C23.8795 11.984 23.4421 11.7813 23.3141 11.376C23.2501 11.1947 23.2181 10.9173 23.2181 10.544V1.664C23.2181 1.408 23.2235 1.22133 23.2341 1.104C23.2555 0.986666 23.3088 0.848 23.3941 0.688C23.5435 0.4 23.9595 0.256 24.6421 0.256H28.6741C29.6555 0.256 30.4768 0.597333 31.1381 1.28C31.8315 1.97333 32.1781 2.80533 32.1781 3.776C32.1781 4.48 31.9755 5.12533 31.5701 5.712ZM29.6821 8.064C29.6821 7.808 29.6501 7.60533 29.5861 7.456C29.5328 7.30667 29.4368 7.2 29.2981 7.136C29.0848 7.05067 28.7861 7.008 28.4021 7.008C28.0181 7.008 27.7301 6.93333 27.5381 6.784C27.3461 6.63467 27.2501 6.33067 27.2501 5.872C27.2501 5.40267 27.3461 5.09333 27.5381 4.944C27.7408 4.79467 28.0715 4.72 28.5301 4.72C28.9568 4.72 29.2128 4.608 29.2981 4.384C29.3301 4.26667 29.3461 4.07467 29.3461 3.808C29.3461 3.54133 29.2555 3.35467 29.0741 3.248C28.9035 3.14133 28.6421 3.088 28.2901 3.088H26.0501V9.152H28.6741C29.3461 9.152 29.6821 8.78933 29.6821 8.064ZM42.5614 0.495999C43.084 0.858666 43.3454 1.21067 43.3454 1.552C43.3454 1.75467 43.2227 2.03733 42.9774 2.4L39.5214 7.568V10.624C39.5214 10.8693 39.5107 11.056 39.4894 11.184C39.4787 11.3013 39.4307 11.44 39.3454 11.6C39.26 11.76 39.116 11.872 38.9134 11.936C38.7107 12 38.4387 12.032 38.0974 12.032C37.756 12.032 37.484 12 37.2814 11.936C37.0787 11.872 36.9347 11.76 36.8494 11.6C36.764 11.4293 36.7107 11.2853 36.6894 11.168C36.6787 11.04 36.6734 10.848 36.6734 10.592V7.568L33.2174 2.4C32.972 2.03733 32.8494 1.75467 32.8494 1.552C32.8494 1.21067 33.084 0.885332 33.5534 0.575999C34.0227 0.256 34.3587 0.0959997 34.5614 0.0959997C34.764 0.0959997 34.924 0.138666 35.0414 0.223999C35.2227 0.341333 35.4147 0.559999 35.6174 0.879999L38.0974 4.848L40.5774 0.879999C40.78 0.559999 40.956 0.352 41.1054 0.256C41.2547 0.149333 41.4254 0.0959997 41.6174 0.0959997C41.82 0.0959997 42.1347 0.229333 42.5614 0.495999ZM51.9781 0.271999C52.2235 0.271999 52.4048 0.282666 52.5221 0.304C52.6501 0.314666 52.7888 0.362666 52.9381 0.447999C53.0981 0.533333 53.2101 0.677333 53.2741 0.879999C53.3381 1.08267 53.3701 1.35467 53.3701 1.696C53.3701 2.03733 53.3381 2.30933 53.2741 2.512C53.2101 2.71467 53.0981 2.85867 52.9381 2.944C52.7781 3.01867 52.6341 3.06667 52.5061 3.088C52.3888 3.09867 52.2021 3.104 51.9461 3.104H47.0501V4.72H50.2021C50.4581 4.72 50.6448 4.73067 50.7621 4.752C50.8901 4.76267 51.0341 4.81067 51.1941 4.896C51.4715 5.056 51.6101 5.47733 51.6101 6.16C51.6101 6.90667 51.4075 7.34933 51.0021 7.488C50.8315 7.54133 50.5595 7.568 50.1861 7.568H47.0501V10.592C47.0501 10.848 47.0395 11.0347 47.0181 11.152C47.0075 11.2693 46.9595 11.408 46.8741 11.568C46.7248 11.856 46.3088 12 45.6261 12C44.8795 12 44.4421 11.7973 44.3141 11.392C44.2501 11.2213 44.2181 10.9493 44.2181 10.576V1.68C44.2181 1.136 44.3195 0.767999 44.5221 0.575999C44.7248 0.373333 45.1088 0.271999 45.6741 0.271999H51.9781ZM62.0696 0.704C62.1763 0.533333 62.331 0.415999 62.5336 0.351999C62.7363 0.287999 62.987 0.256 63.2856 0.256C63.595 0.256 63.8403 0.282666 64.0216 0.335999C64.203 0.389333 64.3416 0.453333 64.4376 0.528C64.5336 0.602666 64.603 0.714666 64.6456 0.863999C64.7096 1.04533 64.7416 1.32267 64.7416 1.696V6.528C64.7416 7.936 64.3043 9.216 63.4296 10.368C63.003 10.912 62.4536 11.3547 61.7816 11.696C61.1096 12.0267 60.363 12.192 59.5416 12.192C58.731 12.192 57.9896 12.0213 57.3176 11.68C56.6563 11.3387 56.1176 10.8907 55.7016 10.336C54.8376 9.20533 54.4056 7.92533 54.4056 6.496V1.68C54.4056 1.424 54.411 1.23733 54.4216 1.12C54.443 0.992 54.4963 0.848 54.5816 0.688C54.667 0.527999 54.811 0.415999 55.0136 0.351999C55.2163 0.287999 55.4883 0.256 55.8296 0.256C56.171 0.256 56.443 0.287999 56.6456 0.351999C56.8483 0.415999 56.987 0.527999 57.0616 0.688C57.1896 0.933333 57.2536 1.26933 57.2536 1.696V6.496C57.2536 7.14667 57.4136 7.76533 57.7336 8.352C57.8936 8.65067 58.1336 8.89067 58.4536 9.072C58.7736 9.25333 59.1523 9.344 59.5896 9.344C60.3683 9.344 60.9496 9.056 61.3336 8.48C61.7176 7.904 61.9096 7.23733 61.9096 6.48V1.584C61.9096 1.168 61.963 0.874666 62.0696 0.704ZM74.991 10.016C75.151 10.4 75.231 10.6773 75.231 10.848C75.231 11.2533 74.9003 11.5947 74.239 11.872C73.8977 12.0213 73.6203 12.096 73.407 12.096C73.2043 12.096 73.0337 12.048 72.895 11.952C72.767 11.8453 72.671 11.7387 72.607 11.632C72.5003 11.4293 72.0843 10.464 71.359 8.736L70.863 8.768H68.847V10.576C68.847 10.8213 68.8363 11.008 68.815 11.136C68.8043 11.2533 68.7563 11.392 68.671 11.552C68.5217 11.84 68.1057 11.984 67.423 11.984C66.6763 11.984 66.239 11.7867 66.111 11.392C66.047 11.2107 66.015 10.9333 66.015 10.56V1.68C66.015 1.43467 66.0203 1.25333 66.031 1.136C66.0523 1.008 66.1057 0.863999 66.191 0.704C66.3403 0.415999 66.7563 0.271999 67.439 0.271999H70.895C71.8337 0.271999 72.7457 0.613333 73.631 1.296C74.0577 1.62667 74.4097 2.07467 74.687 2.64C74.9643 3.20533 75.103 3.83467 75.103 4.528C75.103 5.73333 74.703 6.72533 73.903 7.504C74.1377 8.06933 74.5003 8.90667 74.991 10.016ZM68.847 5.936H70.895C71.2043 5.936 71.5137 5.81867 71.823 5.584C72.1323 5.34933 72.287 4.99733 72.287 4.528C72.287 4.05867 72.1323 3.70667 71.823 3.472C71.5137 3.22667 71.1937 3.104 70.863 3.104H68.847V5.936Z" fill="white"/>
</svg>
